<svg width="64" height="42" fill="none" xmlns="http://www.w3.org/2000/svg"><g filter="url(#personal_green_wise_active__a)"><g filter="url(#personal_green_wise_active__b)" clip-path="url(#personal_green_wise_active__c)"><g clip-path="url(#personal_green_wise_active__d)"><rect width="64" height="42" rx="5" fill="#7ED66B"/><g opacity=".5" clip-path="url(#personal_green_wise_active__e)" fill="#42B647"><path d="M64.268 6.089c0-3.744-2.612-6.378-6.275-6.378-4.663 0-7.788 3.383-7.788 8.213 0 3.769 2.637 6.377 6.363 6.377 3.388 0 5.913-1.635 6.95-4.243h-3.763c-.5.811-1.562 1.323-2.862 1.323-2 0-3.25-1.323-3.363-3.195h10.526c.137-.712.212-1.323.212-2.097Zm-10.45-.437c.337-1.722 2.012-3.095 4.037-3.095 1.75 0 3.076 1.273 3.076 3.095h-7.114Zm-13.727 8.312.675-3.594c2.063.412 2.376-.749 2.913-3.545l.263-1.385c.75-3.906 2.262-5.853 6.588-5.33l-.675 3.595c-2.063-.412-2.425 1.148-2.888 3.57l-.263 1.385c-.75 3.956-2.312 5.828-6.613 5.304Zm-5.051.013L37.592.048h3.363l-2.538 13.929h-3.375ZM15.777.048h3.262l1.063 10.072L24.377.048h3.238l1.138 10.172L32.878.048h3.25l-5.913 13.929h-3.7l-1.2-9.585-4.088 9.585h-3.575L15.777.048ZM3.588 3.743-.287 7.437H6.3l.687-1.61H3.65l2.088-2.084-1.212-2.085h5.663L4.963 13.977h1.963L12.839.048H1.413l2.175 3.695Z"/></g><g style="mix-blend-mode:overlay" opacity=".2" filter="url(#personal_green_wise_active__f)"><path fill="#fff" d="m35.549-5.015 35.995-.628.907 51.992-35.994.628z"/></g><g style="mix-blend-mode:overlay" opacity=".14" filter="url(#personal_green_wise_active__g)"><path fill="#000" d="m-18.197-5.015 35.995-.628.907 51.992-35.994.628z"/></g></g></g></g><defs><filter id="personal_green_wise_active__a" x="0" y="-.6" width="64" height="42.6" filterUnits="userSpaceOnUse" color-interpolation-filters="sRGB"><feFlood flood-opacity="0" result="BackgroundImageFix"/><feBlend in="SourceGraphic" in2="BackgroundImageFix" result="shape"/><feColorMatrix in="SourceAlpha" values="0 0 0 0 0 0 0 0 0 0 0 0 0 0 0 0 0 0 127 0" result="hardAlpha"/><feOffset dy="-.6"/><feGaussianBlur stdDeviation=".3"/><feComposite in2="hardAlpha" operator="arithmetic" k2="-1" k3="1"/><feColorMatrix values="0 0 0 0 1 0 0 0 0 1 0 0 0 0 1 0 0 0 0.3 0"/><feBlend in2="shape" result="effect1_innerShadow_957_21479"/><feColorMatrix in="SourceAlpha" values="0 0 0 0 0 0 0 0 0 0 0 0 0 0 0 0 0 0 127 0" result="hardAlpha"/><feOffset/><feGaussianBlur stdDeviation=".2"/><feComposite in2="hardAlpha" operator="arithmetic" k2="-1" k3="1"/><feColorMatrix values="0 0 0 0 1 0 0 0 0 1 0 0 0 0 1 0 0 0 0.4 0"/><feBlend in2="effect1_innerShadow_957_21479" result="effect2_innerShadow_957_21479"/></filter><filter id="personal_green_wise_active__b" x="0" y="-.6" width="64" height="42.6" filterUnits="userSpaceOnUse" color-interpolation-filters="sRGB"><feFlood flood-opacity="0" result="BackgroundImageFix"/><feBlend in="SourceGraphic" in2="BackgroundImageFix" result="shape"/><feColorMatrix in="SourceAlpha" values="0 0 0 0 0 0 0 0 0 0 0 0 0 0 0 0 0 0 127 0" result="hardAlpha"/><feOffset dy="-.6"/><feGaussianBlur stdDeviation=".3"/><feComposite in2="hardAlpha" operator="arithmetic" k2="-1" k3="1"/><feColorMatrix values="0 0 0 0 1 0 0 0 0 1 0 0 0 0 1 0 0 0 0.3 0"/><feBlend in2="shape" result="effect1_innerShadow_957_21479"/><feColorMatrix in="SourceAlpha" values="0 0 0 0 0 0 0 0 0 0 0 0 0 0 0 0 0 0 127 0" result="hardAlpha"/><feOffset/><feGaussianBlur stdDeviation=".2"/><feComposite in2="hardAlpha" operator="arithmetic" k2="-1" k3="1"/><feColorMatrix values="0 0 0 0 1 0 0 0 0 1 0 0 0 0 1 0 0 0 0.4 0"/><feBlend in2="effect1_innerShadow_957_21479" result="effect2_innerShadow_957_21479"/></filter><filter id="personal_green_wise_active__f" x="24.549" y="-16.644" width="58.902" height="74.62" filterUnits="userSpaceOnUse" color-interpolation-filters="sRGB"><feFlood flood-opacity="0" result="BackgroundImageFix"/><feBlend in="SourceGraphic" in2="BackgroundImageFix" result="shape"/><feGaussianBlur stdDeviation="5.5" result="effect1_foregroundBlur_957_21479"/></filter><filter id="personal_green_wise_active__g" x="-36.197" y="-23.644" width="72.902" height="88.62" filterUnits="userSpaceOnUse" color-interpolation-filters="sRGB"><feFlood flood-opacity="0" result="BackgroundImageFix"/><feBlend in="SourceGraphic" in2="BackgroundImageFix" result="shape"/><feGaussianBlur stdDeviation="9" result="effect1_foregroundBlur_957_21479"/></filter><clipPath id="personal_green_wise_active__c"><rect width="64" height="42" rx="5" fill="#fff"/></clipPath><clipPath id="personal_green_wise_active__d"><rect width="64" height="42" rx="5" fill="#fff"/></clipPath><clipPath id="personal_green_wise_active__e"><path fill="#fff" transform="translate(-1 -1)" d="M0 0h65.981v16H0z"/></clipPath></defs></svg>