<svg width="64" height="42" fill="none" xmlns="http://www.w3.org/2000/svg"><g filter="url(#personal_purple_frozen__a)"><g clip-path="url(#personal_purple_frozen__b)"><g filter="url(#personal_purple_frozen__c)"><g clip-path="url(#personal_purple_frozen__d)"><rect width="64" height="42" rx="5" fill="#7686D1"/><path d="m48.303 9.925-4.032 3.85h6.855l.716-1.677h-3.474l2.173-2.173-1.262-2.172h5.893l-5.438 12.852h2.042l6.153-14.53H46.04l2.264 3.85Z" fill="#fff"/><g style="mix-blend-mode:overlay" opacity=".16" filter="url(#personal_purple_frozen__e)"><path fill="#fff" d="m35.549-5.015 35.995-.628.907 51.992-35.994.628z"/></g><g style="mix-blend-mode:overlay" opacity=".14" filter="url(#personal_purple_frozen__f)"><path fill="#000" d="m-18.197-5.015 35.995-.628.907 51.992-35.994.628z"/></g></g></g><path fill="#F8F8F8" fill-opacity=".6" d="M0 0h64v42H0z"/><mask id="personal_purple_frozen__g" style="mask-type:alpha" maskUnits="userSpaceOnUse" x="21" y="10" width="22" height="22"><path d="M41.857 21.858 37.272 23.1 33.714 21l3.558-2.1 4.585 1.242.429-1.671-4.114-1.071 1.114-4.158-1.629-.471-1.243 4.629-3.557 2.1v-4.158l3.343-3.428-1.2-1.2-3 3.043-3-3.043-1.2 1.2 3.343 3.428V19.5l-3.557-2.1-1.243-4.629-1.629.471 1.115 4.158-4.115 1.071.429 1.671 4.586-1.242 3.557 2.1-3.557 2.1-4.586-1.243-.429 1.671 4.115 1.072-1.115 4.157 1.629.471 1.243-4.628 3.557-2.1v4.157L27.8 30.086l1.2 1.2 3-3.043 3 3.043 1.2-1.2-3.343-3.428V22.5l3.557 2.1 1.243 4.628 1.629-.471-1.114-4.157 4.114-1.072-.429-1.671Z" fill="#F0F"/></mask><g mask="url(#personal_purple_frozen__g)"><path fill="#121511" d="M20 9h24v24H20z"/></g></g></g><defs><filter id="personal_purple_frozen__a" x="0" y="-.6" width="64" height="42.6" filterUnits="userSpaceOnUse" color-interpolation-filters="sRGB"><feFlood flood-opacity="0" result="BackgroundImageFix"/><feBlend in="SourceGraphic" in2="BackgroundImageFix" result="shape"/><feColorMatrix in="SourceAlpha" values="0 0 0 0 0 0 0 0 0 0 0 0 0 0 0 0 0 0 127 0" result="hardAlpha"/><feOffset dy="-.6"/><feGaussianBlur stdDeviation=".3"/><feComposite in2="hardAlpha" operator="arithmetic" k2="-1" k3="1"/><feColorMatrix values="0 0 0 0 1 0 0 0 0 1 0 0 0 0 1 0 0 0 0.3 0"/><feBlend in2="shape" result="effect1_innerShadow_957_21383"/><feColorMatrix in="SourceAlpha" values="0 0 0 0 0 0 0 0 0 0 0 0 0 0 0 0 0 0 127 0" result="hardAlpha"/><feOffset/><feGaussianBlur stdDeviation=".2"/><feComposite in2="hardAlpha" operator="arithmetic" k2="-1" k3="1"/><feColorMatrix values="0 0 0 0 1 0 0 0 0 1 0 0 0 0 1 0 0 0 0.4 0"/><feBlend in2="effect1_innerShadow_957_21383" result="effect2_innerShadow_957_21383"/></filter><filter id="personal_purple_frozen__c" x="0" y="-.6" width="64" height="42.6" filterUnits="userSpaceOnUse" color-interpolation-filters="sRGB"><feFlood flood-opacity="0" result="BackgroundImageFix"/><feBlend in="SourceGraphic" in2="BackgroundImageFix" result="shape"/><feColorMatrix in="SourceAlpha" values="0 0 0 0 0 0 0 0 0 0 0 0 0 0 0 0 0 0 127 0" result="hardAlpha"/><feOffset dy="-.6"/><feGaussianBlur stdDeviation=".3"/><feComposite in2="hardAlpha" operator="arithmetic" k2="-1" k3="1"/><feColorMatrix values="0 0 0 0 1 0 0 0 0 1 0 0 0 0 1 0 0 0 0.3 0"/><feBlend in2="shape" result="effect1_innerShadow_957_21383"/><feColorMatrix in="SourceAlpha" values="0 0 0 0 0 0 0 0 0 0 0 0 0 0 0 0 0 0 127 0" result="hardAlpha"/><feOffset/><feGaussianBlur stdDeviation=".2"/><feComposite in2="hardAlpha" operator="arithmetic" k2="-1" k3="1"/><feColorMatrix values="0 0 0 0 1 0 0 0 0 1 0 0 0 0 1 0 0 0 0.4 0"/><feBlend in2="effect1_innerShadow_957_21383" result="effect2_innerShadow_957_21383"/></filter><filter id="personal_purple_frozen__e" x="24.549" y="-16.644" width="58.902" height="74.62" filterUnits="userSpaceOnUse" color-interpolation-filters="sRGB"><feFlood flood-opacity="0" result="BackgroundImageFix"/><feBlend in="SourceGraphic" in2="BackgroundImageFix" result="shape"/><feGaussianBlur stdDeviation="5.5" result="effect1_foregroundBlur_957_21383"/></filter><filter id="personal_purple_frozen__f" x="-36.197" y="-23.644" width="72.902" height="88.62" filterUnits="userSpaceOnUse" color-interpolation-filters="sRGB"><feFlood flood-opacity="0" result="BackgroundImageFix"/><feBlend in="SourceGraphic" in2="BackgroundImageFix" result="shape"/><feGaussianBlur stdDeviation="9" result="effect1_foregroundBlur_957_21383"/></filter><clipPath id="personal_purple_frozen__b"><rect width="64" height="42" rx="5" fill="#fff"/></clipPath><clipPath id="personal_purple_frozen__d"><rect width="64" height="42" rx="5" fill="#fff"/></clipPath></defs></svg>